<svg xmlns="http://www.w3.org/2000/svg" viewBox="0 0 64 64" fill="none">
  <defs>
    <linearGradient id="dstBg" x1="0" y1="0" x2="0" y2="1">
      <stop offset="0" stop-color="#1a2237"/>
      <stop offset="1" stop-color="#0f1524"/>
    </linearGradient>
    <radialGradient id="dstGlow" cx="0" cy="0" r="1" gradientUnits="userSpaceOnUse" gradientTransform="translate(32 30) rotate(90) scale(23)">
      <stop offset="0" stop-color="#f8f1df" stop-opacity="0.28"/>
      <stop offset="1" stop-color="#f8f1df" stop-opacity="0"/>
    </radialGradient>
  </defs>

  <rect x="2" y="2" width="60" height="60" rx="12" fill="url(#dstBg)"/>
  <circle cx="32" cy="30" r="20" fill="url(#dstGlow)"/>

  <g transform="translate(8 7) scale(2.4)">
    <path
      d="M10 1.7 11.4 3.8l2.3-.8-.4 2.3 2.3-.4-1 2 1.9.6-1.5 1.2 1.2 1.5-2-.1.2 1.9-1.8-.7-.8 2-1.4-1.2-1.4 1.2-.8-2-1.8.7.2-1.9-2 .1 1.2-1.5-1.5-1.2 1.9-.6-1-2 2.3.4-.4-2.3 2.3.8L10 1.7Z"
      stroke="#f5e7c8"
      stroke-width="1"
      stroke-linejoin="round"
    />
    <path d="M10 5.9c2.1 0 3.7 1.6 3.7 3.6 0 2-1.6 3.6-3.7 3.6s-3.7-1.6-3.7-3.6c0-2 1.6-3.6 3.7-3.6Z" stroke="#f5e7c8" stroke-width="1"/>
    <circle cx="8.7" cy="8.9" r="0.42" fill="#f5e7c8"/>
    <circle cx="11.3" cy="8.9" r="0.42" fill="#f5e7c8"/>
    <path d="M9.25 10.45c.2.26.45.4.75.4.3 0 .55-.14.75-.4" stroke="#f5e7c8" stroke-width="1" stroke-linecap="round"/>
  </g>
</svg>
