<svg xmlns="http://www.w3.org/2000/svg" width="616" height="353" viewBox="0 0 616 353" fill="none">
  <defs>
    <linearGradient id="bg" x1="0" y1="0" x2="616" y2="353" gradientUnits="userSpaceOnUse">
      <stop offset="0" stop-color="#070A16" />
      <stop offset="0.52" stop-color="#0B1530" />
      <stop offset="1" stop-color="#0A1B2E" />
    </linearGradient>

    <radialGradient id="glow" cx="0" cy="0" r="1" gradientUnits="userSpaceOnUse" gradientTransform="translate(455 278) rotate(168) scale(360 240)">
      <stop offset="0" stop-color="#22D3EE" stop-opacity="0.22" />
      <stop offset="0.46" stop-color="#A78BFA" stop-opacity="0.12" />
      <stop offset="1" stop-color="#000000" stop-opacity="0" />
    </radialGradient>

    <radialGradient id="moon" cx="0" cy="0" r="1" gradientUnits="userSpaceOnUse" gradientTransform="translate(515 88) rotate(135) scale(130)">
      <stop offset="0" stop-color="#F8FAFC" stop-opacity="0.98" />
      <stop offset="0.52" stop-color="#CBD5E1" stop-opacity="0.72" />
      <stop offset="1" stop-color="#94A3B8" stop-opacity="0.18" />
    </radialGradient>

    <linearGradient id="horizon" x1="0" y1="240" x2="616" y2="353" gradientUnits="userSpaceOnUse">
      <stop offset="0" stop-color="#0B1026" stop-opacity="0.0" />
      <stop offset="0.42" stop-color="#0B1026" stop-opacity="0.5" />
      <stop offset="1" stop-color="#0B1026" stop-opacity="0.9" />
    </linearGradient>
  </defs>

  <rect width="616" height="353" fill="url(#bg)" />
  <rect width="616" height="353" fill="url(#glow)" />

  <!-- Moon -->
  <circle cx="515" cy="88" r="96" fill="url(#moon)" />
  <circle cx="545" cy="72" r="90" fill="#0B1530" opacity="0.12" />

  <!-- Stars -->
  <g fill="#E2E8F0" opacity="0.65">
    <circle cx="72" cy="64" r="1.4" />
    <circle cx="110" cy="96" r="1.1" />
    <circle cx="148" cy="58" r="1.0" />
    <circle cx="208" cy="92" r="1.3" />
    <circle cx="248" cy="60" r="1.0" />
    <circle cx="286" cy="108" r="1.2" />
    <circle cx="336" cy="66" r="1.1" />
    <circle cx="376" cy="112" r="1.0" />
    <circle cx="418" cy="54" r="1.2" />
    <circle cx="458" cy="126" r="1.0" />
    <circle cx="78" cy="140" r="1.0" />
    <circle cx="128" cy="152" r="1.2" />
    <circle cx="188" cy="138" r="1.0" />
    <circle cx="238" cy="168" r="1.1" />
    <circle cx="302" cy="148" r="1.0" />
    <circle cx="362" cy="164" r="1.2" />
    <circle cx="430" cy="150" r="1.0" />
  </g>

  <!-- Soft clouds / waves -->
  <path
    d="M-12 246C42 224 88 222 140 234C194 246 236 260 292 254C348 248 380 224 436 226C492 228 530 252 586 254C642 256 674 240 700 224V360H-12V246Z"
    fill="#0B1026"
    opacity="0.32"
  />
  <path
    d="M-18 270C38 250 92 246 144 258C198 270 238 292 296 286C354 280 388 250 444 252C500 254 536 280 592 282C648 284 680 270 706 256V360H-18V270Z"
    fill="url(#horizon)"
    opacity="0.9"
  />
</svg>
